<svg width="30" height="30" viewBox="0 0 30 30" fill="none" xmlns="http://www.w3.org/2000/svg">
<path fill-rule="evenodd" clip-rule="evenodd" d="M3.75 12.8125C3.75 7.8075 7.8075 3.75 12.8125 3.75H17.1875C22.1925 3.75 26.25 7.8075 26.25 12.8125C26.25 17.8175 22.1925 21.875 17.1875 21.875H16.75V26.25C16.75 26.25 3.75 24.0625 3.75 12.8125ZM17.3069 7.80125C17.9506 8.22875 18.4362 8.92188 18.4362 9.85125C18.4362 10.8375 18.0381 11.5625 17.3937 12.0062C17.1394 12.1785 16.8586 12.3081 16.5625 12.39V13.3475C16.5625 13.4706 16.5383 13.5925 16.4911 13.7063C16.444 13.82 16.375 13.9234 16.2879 14.0104C16.2009 14.0975 16.0975 14.1665 15.9838 14.2136C15.87 14.2608 15.7481 14.285 15.625 14.285C15.5019 14.285 15.38 14.2608 15.2662 14.2136C15.1525 14.1665 15.0491 14.0975 14.9621 14.0104C14.875 13.9234 14.806 13.82 14.7589 13.7063C14.7117 13.5925 14.6875 13.4706 14.6875 13.3475V11.5994C14.6874 11.3615 14.7778 11.1325 14.9403 10.9588C15.1027 10.7851 15.3252 10.6796 15.5625 10.6638C15.9087 10.6406 16.1713 10.5719 16.33 10.4625C16.3941 10.42 16.4458 10.3614 16.48 10.2925C16.5175 10.2175 16.5612 10.0837 16.5612 9.85062C16.5612 9.655 16.4844 9.50563 16.2688 9.36188C16.0238 9.19938 15.63 9.07938 15.1569 9.06438C14.6894 9.04938 14.235 9.14062 13.9006 9.3025C13.5656 9.465 13.4431 9.6475 13.4081 9.78188C13.3798 9.90348 13.3274 10.0182 13.2541 10.1193C13.1808 10.2204 13.088 10.3058 12.9813 10.3706C12.8745 10.4353 12.7559 10.4781 12.6323 10.4964C12.5088 10.5146 12.3829 10.5081 12.2619 10.477C12.141 10.4459 12.0275 10.391 11.928 10.3155C11.8286 10.24 11.7453 10.1453 11.6829 10.0371C11.6205 9.92896 11.5804 9.80941 11.5649 9.68551C11.5494 9.5616 11.5588 9.43585 11.5925 9.31562C11.8075 8.4775 12.435 7.93 13.0831 7.61563C13.7331 7.3 14.4975 7.16687 15.2169 7.19C15.9306 7.2125 16.6931 7.3925 17.3069 7.80125ZM15.625 18.125C15.9565 18.125 16.2745 17.9933 16.5089 17.7589C16.7433 17.5245 16.875 17.2065 16.875 16.875C16.875 16.5435 16.7433 16.2255 16.5089 15.9911C16.2745 15.7567 15.9565 15.625 15.625 15.625C15.2935 15.625 14.9755 15.7567 14.7411 15.9911C14.5067 16.2255 14.375 16.5435 14.375 16.875C14.375 17.2065 14.5067 17.5245 14.7411 17.7589C14.9755 17.9933 15.2935 18.125 15.625 18.125Z" fill="#227B48"/>
</svg>
