<svg width="30" height="30" viewBox="0 0 30 30" fill="none" xmlns="http://www.w3.org/2000/svg">
<path d="M18.75 26.25C18.0625 26.25 17.4738 26.005 16.9838 25.515C16.4938 25.025 16.2492 24.4367 16.25 23.75V18.75C16.25 18.0625 16.495 17.4738 16.985 16.9838C17.475 16.4938 18.0633 16.2492 18.75 16.25H23.75C24.4375 16.25 25.0263 16.495 25.5163 16.985C26.0063 17.475 26.2508 18.0633 26.25 18.75V23.75C26.25 24.4375 26.005 25.0263 25.515 25.5163C25.025 26.0063 24.4367 26.2508 23.75 26.25H18.75ZM18.75 13.75C18.0625 13.75 17.4738 13.505 16.9838 13.015C16.4938 12.525 16.2492 11.9367 16.25 11.25V6.25C16.25 5.5625 16.495 4.97375 16.985 4.48375C17.475 3.99375 18.0633 3.74917 18.75 3.75H23.75C24.4375 3.75 25.0263 3.995 25.5163 4.485C26.0063 4.975 26.2508 5.56334 26.25 6.25V11.25C26.25 11.9375 26.005 12.5263 25.515 13.0163C25.025 13.5063 24.4367 13.7508 23.75 13.75H18.75ZM6.25 13.75C5.5625 13.75 4.97375 13.505 4.48375 13.015C3.99375 12.525 3.74917 11.9367 3.75 11.25V6.25C3.75 5.5625 3.995 4.97375 4.485 4.48375C4.975 3.99375 5.56334 3.74917 6.25 3.75H11.25C11.9375 3.75 12.5263 3.995 13.0163 4.485C13.5063 4.975 13.7508 5.56334 13.75 6.25V11.25C13.75 11.9375 13.505 12.5263 13.015 13.0163C12.525 13.5063 11.9367 13.7508 11.25 13.75H6.25ZM6.25 26.25C5.5625 26.25 4.97375 26.005 4.48375 25.515C3.99375 25.025 3.74917 24.4367 3.75 23.75V18.75C3.75 18.0625 3.995 17.4738 4.485 16.9838C4.975 16.4938 5.56334 16.2492 6.25 16.25H11.25C11.9375 16.25 12.5263 16.495 13.0163 16.985C13.5063 17.475 13.7508 18.0633 13.75 18.75V23.75C13.75 24.4375 13.505 25.0263 13.015 25.5163C12.525 26.0063 11.9367 26.2508 11.25 26.25H6.25Z" fill="#227B48"/>
</svg>
